<svg id="my-svg" width="100%" xmlns="http://www.w3.org/2000/svg" xmlns:xlink="http://www.w3.org/1999/xlink" class="flowchart" style="max-width: 734.164px; background-color: rgb(255, 255, 255);" viewBox="0 0 734.1640625 791.9962158203125" role="graphics-document document" aria-roledescription="flowchart-v2"><style>#my-svg{font-family:"trebuchet ms",verdana,arial,sans-serif;font-size:16px;fill:#333;}@keyframes edge-animation-frame{from{stroke-dashoffset:0;}}@keyframes dash{to{stroke-dashoffset:0;}}#my-svg .edge-animation-slow{stroke-dasharray:9,5!important;stroke-dashoffset:900;animation:dash 50s linear infinite;stroke-linecap:round;}#my-svg .edge-animation-fast{stroke-dasharray:9,5!important;stroke-dashoffset:900;animation:dash 20s linear infinite;stroke-linecap:round;}#my-svg .error-icon{fill:#552222;}#my-svg .error-text{fill:#552222;stroke:#552222;}#my-svg .edge-thickness-normal{stroke-width:1px;}#my-svg .edge-thickness-thick{stroke-width:3.5px;}#my-svg .edge-pattern-solid{stroke-dasharray:0;}#my-svg .edge-thickness-invisible{stroke-width:0;fill:none;}#my-svg .edge-pattern-dashed{stroke-dasharray:3;}#my-svg .edge-pattern-dotted{stroke-dasharray:2;}#my-svg .marker{fill:#333333;stroke:#333333;}#my-svg .marker.cross{stroke:#333333;}#my-svg svg{font-family:"trebuchet ms",verdana,arial,sans-serif;font-size:16px;}#my-svg p{margin:0;}#my-svg .label{font-family:"trebuchet ms",verdana,arial,sans-serif;color:#333;}#my-svg .cluster-label text{fill:#333;}#my-svg .cluster-label span{color:#333;}#my-svg .cluster-label span p{background-color:transparent;}#my-svg .label text,#my-svg span{fill:#333;color:#333;}#my-svg .node rect,#my-svg .node circle,#my-svg .node ellipse,#my-svg .node polygon,#my-svg .node path{fill:#ECECFF;stroke:#9370DB;stroke-width:1px;}#my-svg .rough-node .label text,#my-svg .node .label text,#my-svg .image-shape .label,#my-svg .icon-shape .label{text-anchor:middle;}#my-svg .node .katex path{fill:#000;stroke:#000;stroke-width:1px;}#my-svg .rough-node .label,#my-svg .node .label,#my-svg .image-shape .label,#my-svg .icon-shape .label{text-align:center;}#my-svg .node.clickable{cursor:pointer;}#my-svg .root .anchor path{fill:#333333!important;stroke-width:0;stroke:#333333;}#my-svg .arrowheadPath{fill:#333333;}#my-svg .edgePath .path{stroke:#333333;stroke-width:1px;}#my-svg .flowchart-link{stroke:#333333;fill:none;}#my-svg .edgeLabel{background-color:rgba(232,232,232, 0.8);text-align:center;}#my-svg .edgeLabel p{background-color:rgba(232,232,232, 0.8);}#my-svg .edgeLabel rect{opacity:0.5;background-color:rgba(232,232,232, 0.8);fill:rgba(232,232,232, 0.8);}#my-svg .labelBkg{background-color:rgba(232, 232, 232, 0.5);}#my-svg .cluster rect{fill:#ffffde;stroke:#aaaa33;stroke-width:1px;}#my-svg .cluster text{fill:#333;}#my-svg .cluster span{color:#333;}#my-svg div.mermaidTooltip{position:absolute;text-align:center;max-width:200px;padding:2px;font-family:"trebuchet ms",verdana,arial,sans-serif;font-size:12px;background:hsl(80, 100%, 96.2745098039%);border:1px solid #aaaa33;border-radius:2px;pointer-events:none;z-index:100;}#my-svg .flowchartTitleText{text-anchor:middle;font-size:18px;fill:#333;}#my-svg rect.text{fill:none;stroke-width:0;}#my-svg .icon-shape,#my-svg .image-shape{background-color:rgba(232,232,232, 0.8);text-align:center;}#my-svg .icon-shape p,#my-svg .image-shape p{background-color:rgba(232,232,232, 0.8);padding:2px;}#my-svg .icon-shape .label rect,#my-svg .image-shape .label rect{opacity:0.5;background-color:rgba(232,232,232, 0.8);fill:rgba(232,232,232, 0.8);}#my-svg .label-icon{display:inline-block;height:1em;overflow:visible;vertical-align:-0.125em;}#my-svg .node .label-icon path{fill:currentColor;stroke:revert;stroke-width:revert;}#my-svg .node .neo-node{stroke:#9370DB;}#my-svg [data-look="neo"].node rect,#my-svg [data-look="neo"].cluster rect,#my-svg [data-look="neo"].node polygon{stroke:#9370DB;filter:drop-shadow(1px 2px 2px rgba(185, 185, 185, 1));}#my-svg [data-look="neo"].swimlane.cluster rect{filter:none;}#my-svg [data-look="neo"].node path{stroke:#9370DB;stroke-width:1px;}#my-svg [data-look="neo"].node .outer-path{filter:drop-shadow(1px 2px 2px rgba(185, 185, 185, 1));}#my-svg [data-look="neo"].node .neo-line path{stroke:#9370DB;filter:none;}#my-svg [data-look="neo"].node circle{stroke:#9370DB;filter:drop-shadow(1px 2px 2px rgba(185, 185, 185, 1));}#my-svg [data-look="neo"].node circle .state-start{fill:#000000;}#my-svg [data-look="neo"].icon-shape .icon{fill:#9370DB;filter:drop-shadow(1px 2px 2px rgba(185, 185, 185, 1));}#my-svg [data-look="neo"].icon-shape .icon-neo path{stroke:#9370DB;filter:drop-shadow(1px 2px 2px rgba(185, 185, 185, 1));}#my-svg :root{--mermaid-font-family:"trebuchet ms",verdana,arial,sans-serif;}#my-svg .user&gt;*{fill:rgb(246, 246, 247)!important;stroke:rgb(143, 143, 143)!important;stroke-width:1.5px!important;color:rgb(31, 31, 33)!important;}#my-svg .user span{fill:rgb(246, 246, 247)!important;stroke:rgb(143, 143, 143)!important;stroke-width:1.5px!important;color:rgb(31, 31, 33)!important;}#my-svg .user tspan{fill:rgb(31, 31, 33)!important;}#my-svg .core&gt;*{fill:rgb(237, 238, 242)!important;stroke:rgb(91, 95, 107)!important;stroke-width:1.5px!important;color:rgb(31, 31, 33)!important;}#my-svg .core span{fill:rgb(237, 238, 242)!important;stroke:rgb(91, 95, 107)!important;stroke-width:1.5px!important;color:rgb(31, 31, 33)!important;}#my-svg .core tspan{fill:rgb(31, 31, 33)!important;}#my-svg .protocol&gt;*{fill:rgb(243, 232, 250)!important;stroke:rgb(187, 63, 216)!important;stroke-width:1.5px!important;color:rgb(31, 31, 33)!important;}#my-svg .protocol span{fill:rgb(243, 232, 250)!important;stroke:rgb(187, 63, 216)!important;stroke-width:1.5px!important;color:rgb(31, 31, 33)!important;}#my-svg .protocol tspan{fill:rgb(31, 31, 33)!important;}#my-svg .mlx&gt;*{fill:rgb(227, 240, 236)!important;stroke:rgb(62, 153, 121)!important;stroke-width:1.5px!important;color:rgb(31, 31, 33)!important;}#my-svg .mlx span{fill:rgb(227, 240, 236)!important;stroke:rgb(62, 153, 121)!important;stroke-width:1.5px!important;color:rgb(31, 31, 33)!important;}#my-svg .mlx tspan{fill:rgb(31, 31, 33)!important;}#my-svg .apple&gt;*{fill:rgb(231, 240, 254)!important;stroke:rgb(47, 124, 249)!important;stroke-width:1.5px!important;color:rgb(31, 31, 33)!important;}#my-svg .apple span{fill:rgb(231, 240, 254)!important;stroke:rgb(47, 124, 249)!important;stroke-width:1.5px!important;color:rgb(31, 31, 33)!important;}#my-svg .apple tspan{fill:rgb(31, 31, 33)!important;}#my-svg .store&gt;*{fill:rgb(253, 238, 223)!important;stroke:rgb(243, 144, 62)!important;stroke-width:1.5px!important;color:rgb(31, 31, 33)!important;}#my-svg .store span{fill:rgb(253, 238, 223)!important;stroke:rgb(243, 144, 62)!important;stroke-width:1.5px!important;color:rgb(31, 31, 33)!important;}#my-svg .store tspan{fill:rgb(31, 31, 33)!important;}#my-svg .hub&gt;*{fill:rgb(255, 247, 219)!important;stroke:rgb(227, 160, 8)!important;stroke-width:1.5px!important;color:rgb(31, 31, 33)!important;}#my-svg .hub span{fill:rgb(255, 247, 219)!important;stroke:rgb(227, 160, 8)!important;stroke-width:1.5px!important;color:rgb(31, 31, 33)!important;}#my-svg .hub tspan{fill:rgb(31, 31, 33)!important;}</style><g><marker id="my-svg_flowchart-v2-pointEnd" class="marker flowchart-v2" viewBox="0 0 10 10" refX="5" refY="5" markerUnits="userSpaceOnUse" markerWidth="8" markerHeight="8" orient="auto"><path d="M 0 0 L 10 5 L 0 10 z" class="arrowMarkerPath" style="stroke-width: 1; stroke-dasharray: 1, 0;"/></marker><marker id="my-svg_flowchart-v2-pointStart" class="marker flowchart-v2" viewBox="0 0 10 10" refX="4.5" refY="5" markerUnits="userSpaceOnUse" markerWidth="8" markerHeight="8" orient="auto"><path d="M 0 5 L 10 10 L 10 0 z" class="arrowMarkerPath" style="stroke-width: 1; stroke-dasharray: 1, 0;"/></marker><marker id="my-svg_flowchart-v2-pointEnd-margin" class="marker flowchart-v2" viewBox="0 0 11.5 14" refX="11.5" refY="7" markerUnits="userSpaceOnUse" markerWidth="10.5" markerHeight="14" orient="auto"><path d="M 0 0 L 11.5 7 L 0 14 z" class="arrowMarkerPath" style="stroke-width: 0; stroke-dasharray: 1, 0;"/></marker><marker id="my-svg_flowchart-v2-pointStart-margin" class="marker flowchart-v2" viewBox="0 0 11.5 14" refX="1" refY="7" markerUnits="userSpaceOnUse" markerWidth="11.5" markerHeight="14" orient="auto"><polygon points="0,7 11.5,14 11.5,0" class="arrowMarkerPath" style="stroke-width: 0; stroke-dasharray: 1, 0;"/></marker><marker id="my-svg_flowchart-v2-circleEnd" class="marker flowchart-v2" viewBox="0 0 10 10" refX="11" refY="5" markerUnits="userSpaceOnUse" markerWidth="11" markerHeight="11" orient="auto"><circle cx="5" cy="5" r="5" class="arrowMarkerPath" style="stroke-width: 1; stroke-dasharray: 1, 0;"/></marker><marker id="my-svg_flowchart-v2-circleStart" class="marker flowchart-v2" viewBox="0 0 10 10" refX="-1" refY="5" markerUnits="userSpaceOnUse" markerWidth="11" markerHeight="11" orient="auto"><circle cx="5" cy="5" r="5" class="arrowMarkerPath" style="stroke-width: 1; stroke-dasharray: 1, 0;"/></marker><marker id="my-svg_flowchart-v2-circleEnd-margin" class="marker flowchart-v2" viewBox="0 0 10 10" refY="5" refX="12.25" markerUnits="userSpaceOnUse" markerWidth="14" markerHeight="14" orient="auto"><circle cx="5" cy="5" r="5" class="arrowMarkerPath" style="stroke-width: 0; stroke-dasharray: 1, 0;"/></marker><marker id="my-svg_flowchart-v2-circleStart-margin" class="marker flowchart-v2" viewBox="0 0 10 10" refX="-2" refY="5" markerUnits="userSpaceOnUse" markerWidth="14" markerHeight="14" orient="auto"><circle cx="5" cy="5" r="5" class="arrowMarkerPath" style="stroke-width: 0; stroke-dasharray: 1, 0;"/></marker><marker id="my-svg_flowchart-v2-crossEnd" class="marker cross flowchart-v2" viewBox="0 0 11 11" refX="12" refY="5.2" markerUnits="userSpaceOnUse" markerWidth="11" markerHeight="11" orient="auto"><path d="M 1,1 l 9,9 M 10,1 l -9,9" class="arrowMarkerPath" style="stroke-width: 2; stroke-dasharray: 1, 0;"/></marker><marker id="my-svg_flowchart-v2-crossStart" class="marker cross flowchart-v2" viewBox="0 0 11 11" refX="-1" refY="5.2" markerUnits="userSpaceOnUse" markerWidth="11" markerHeight="11" orient="auto"><path d="M 1,1 l 9,9 M 10,1 l -9,9" class="arrowMarkerPath" style="stroke-width: 2; stroke-dasharray: 1, 0;"/></marker><marker id="my-svg_flowchart-v2-crossEnd-margin" class="marker cross flowchart-v2" viewBox="0 0 15 15" refX="17.7" refY="7.5" markerUnits="userSpaceOnUse" markerWidth="12" markerHeight="12" orient="auto"><path d="M 1,1 L 14,14 M 1,14 L 14,1" class="arrowMarkerPath" style="stroke-width: 2.5;"/></marker><marker id="my-svg_flowchart-v2-crossStart-margin" class="marker cross flowchart-v2" viewBox="0 0 15 15" refX="-3.5" refY="7.5" markerUnits="userSpaceOnUse" markerWidth="12" markerHeight="12" orient="auto"><path d="M 1,1 L 14,14 M 1,14 L 14,1" class="arrowMarkerPath" style="stroke-width: 2.5; stroke-dasharray: 1, 0;"/></marker><g class="root"><g class="clusters"/><g class="edgePaths"><path d="M377.777,47.5L377.694,51.583C377.611,55.667,377.444,63.833,377.361,71.417C377.277,79,377.277,86,377.277,89.5L377.277,93" id="my-svg-L_U_C_0" class="edge-thickness-normal edge-pattern-solid edge-thickness-normal edge-pattern-solid flowchart-link" style=";" data-edge="true" data-et="edge" data-id="L_U_C_0" data-points="W3sieCI6Mzc3Ljc3NzM0Mzc1LCJ5Ijo0Ny40OTk5OTk5OTk5OTk5OH0seyJ4IjozNzcuMjc3MzQzNzUsInkiOjcyfSx7IngiOjM3Ny4yNzczNDM3NSwieSI6OTd9XQ==" data-look="classic" marker-end="url(#my-svg_flowchart-v2-pointEnd)"/><path d="M377.277,199L377.277,203.167C377.277,207.333,377.277,215.667,377.277,223.333C377.277,231,377.277,238,377.277,241.5L377.277,245" id="my-svg-L_C_R_0" class="edge-thickness-normal edge-pattern-solid edge-thickness-normal edge-pattern-solid flowchart-link" style=";" data-edge="true" data-et="edge" data-id="L_C_R_0" data-points="W3sieCI6Mzc3LjI3NzM0Mzc1LCJ5IjoxOTl9LHsieCI6Mzc3LjI3NzM0Mzc1LCJ5IjoyMjR9LHsieCI6Mzc3LjI3NzM0Mzc1LCJ5IjoyNDl9XQ==" data-look="classic" marker-end="url(#my-svg_flowchart-v2-pointEnd)"/><path d="M308.409,351L300.082,357.167C291.754,363.333,275.1,375.667,266.851,392.667C258.602,409.667,258.759,431.333,258.838,442.167L258.916,453" id="my-svg-L_R_P_0" class="edge-thickness-normal edge-pattern-solid edge-thickness-normal edge-pattern-solid flowchart-link" style=";" data-edge="true" data-et="edge" data-id="L_R_P_0" data-points="W3sieCI6MzA4LjQwODc4MDE4NDY1OTEsInkiOjM1MX0seyJ4IjoyNTguNDQ1MzEyNSwieSI6Mzg4fSx7IngiOjI1OC45NDUzMTI1LCJ5Ijo0NTd9XQ==" data-look="classic" marker-end="url(#my-svg_flowchart-v2-pointEnd)"/><path d="M223.307,496L206.014,505.333C188.72,514.667,154.134,533.333,136.84,546.25C119.547,559.166,119.547,566.332,119.547,569.915L119.547,573.498" id="my-svg-L_P_M_0" class="edge-thickness-normal edge-pattern-solid edge-thickness-normal edge-pattern-solid flowchart-link" style=";" data-edge="true" data-et="edge" data-id="L_P_M_0" data-points="W3sieCI6MjIzLjMwNjg5NzYxNTEzMTYsInkiOjQ5Nn0seyJ4IjoxMTkuNTQ2ODc1LCJ5Ijo1NTJ9LHsieCI6MTE5LjU0Njg3NSwieSI6NTc3LjQ5ODEwNDA5NTQ1OX1d" data-look="classic" marker-end="url(#my-svg_flowchart-v2-pointEnd)"/><path d="M294.584,496L311.71,505.333C328.837,514.667,363.09,533.333,380.217,546.25C397.344,559.166,397.344,566.332,397.344,569.915L397.344,573.498" id="my-svg-L_P_A_0" class="edge-thickness-normal edge-pattern-solid edge-thickness-normal edge-pattern-solid flowchart-link" style=";" data-edge="true" data-et="edge" data-id="L_P_A_0" data-points="W3sieCI6Mjk0LjU4MzcyNzM4NDg2ODQ0LCJ5Ijo0OTZ9LHsieCI6Mzk3LjM0Mzc1LCJ5Ijo1NTJ9LHsieCI6Mzk3LjM0Mzc1LCJ5Ijo1NzcuNDk4MTA0MDk1NDU5fV0=" data-look="classic" marker-end="url(#my-svg_flowchart-v2-pointEnd)"/><path d="M119.547,655.498L119.547,659.748C119.547,663.997,119.547,672.497,119.547,680.247C119.547,687.996,119.547,694.996,119.547,698.496L119.547,701.996" id="my-svg-L_M_G_0" class="edge-thickness-normal edge-pattern-solid edge-thickness-normal edge-pattern-solid flowchart-link" style=";" data-edge="true" data-et="edge" data-id="L_M_G_0" data-points="W3sieCI6MTE5LjU0Njg3NSwieSI6NjU1LjQ5ODEwNDA5NTQ1OX0seyJ4IjoxMTkuNTQ2ODc1LCJ5Ijo2ODAuOTk2MjA4MTkwOTE4fSx7IngiOjExOS41NDY4NzUsInkiOjcwNS45OTYyMDgxOTA5MTh9XQ==" data-look="classic" marker-end="url(#my-svg_flowchart-v2-pointEnd)"/><path d="M397.344,655.498L397.344,659.748C397.344,663.997,397.344,672.497,397.344,680.247C397.344,687.996,397.344,694.996,397.344,698.496L397.344,701.996" id="my-svg-L_A_S_0" class="edge-thickness-normal edge-pattern-solid edge-thickness-normal edge-pattern-solid flowchart-link" style=";" data-edge="true" data-et="edge" data-id="L_A_S_0" data-points="W3sieCI6Mzk3LjM0Mzc1LCJ5Ijo2NTUuNDk4MTA0MDk1NDU5fSx7IngiOjM5Ny4zNDM3NSwieSI6NjgwLjk5NjIwODE5MDkxOH0seyJ4IjozOTcuMzQzNzUsInkiOjcwNS45OTYyMDgxOTA5MTh9XQ==" data-look="classic" marker-end="url(#my-svg_flowchart-v2-pointEnd)"/><path d="M507.277,344.387L528.566,351.656C549.854,358.925,592.431,373.462,613.719,386.231C635.008,399,635.008,410,635.008,415.5L635.008,421" id="my-svg-L_R_D_0" class="edge-thickness-normal edge-pattern-dotted edge-thickness-normal edge-pattern-solid flowchart-link" style=";" data-edge="true" data-et="edge" data-id="L_R_D_0" data-points="W3sieCI6NTA3LjI3NzM0Mzc1LCJ5IjozNDQuMzg3NDU2NjE0OTgzNTN9LHsieCI6NjM1LjAwNzgxMjUsInkiOjM4OH0seyJ4Ijo2MzUuMDA3ODEyNSwieSI6NDI1fV0=" data-look="classic" marker-end="url(#my-svg_flowchart-v2-pointEnd)"/><path d="M635.008,527L635.008,531.167C635.008,535.333,635.008,543.667,635.008,551.333C635.008,559,635.008,566,635.008,569.5L635.008,573" id="my-svg-L_D_H_0" class="edge-thickness-normal edge-pattern-dotted edge-thickness-normal edge-pattern-solid flowchart-link" style=";" data-edge="true" data-et="edge" data-id="L_D_H_0" data-points="W3sieCI6NjM1LjAwNzgxMjUsInkiOjUyN30seyJ4Ijo2MzUuMDA3ODEyNSwieSI6NTUyfSx7IngiOjYzNS4wMDc4MTI1LCJ5Ijo1Nzd9XQ==" data-look="classic" marker-end="url(#my-svg_flowchart-v2-pointEnd)"/></g><g class="edgeLabels"><g class="edgeLabel"><g class="label" data-id="L_U_C_0" transform="translate(0, 0)"><foreignObject width="0" height="0"><div xmlns="http://www.w3.org/1999/xhtml" class="labelBkg" style="display: table-cell; white-space: nowrap; line-height: 1.5; max-width: 200px; text-align: center;"><span class="edgeLabel"></span></div></foreignObject></g></g><g class="edgeLabel"><g class="label" data-id="L_C_R_0" transform="translate(0, 0)"><foreignObject width="0" height="0"><div xmlns="http://www.w3.org/1999/xhtml" class="labelBkg" style="display: table-cell; white-space: nowrap; line-height: 1.5; max-width: 200px; text-align: center;"><span class="edgeLabel"></span></div></foreignObject></g></g><g class="edgeLabel"><g class="label" data-id="L_R_P_0" transform="translate(0, 0)"><foreignObject width="0" height="0"><div xmlns="http://www.w3.org/1999/xhtml" class="labelBkg" style="display: table-cell; white-space: nowrap; line-height: 1.5; max-width: 200px; text-align: center;"><span class="edgeLabel"></span></div></foreignObject></g></g><g class="edgeLabel"><g class="label" data-id="L_P_M_0" transform="translate(0, 0)"><foreignObject width="0" height="0"><div xmlns="http://www.w3.org/1999/xhtml" class="labelBkg" style="display: table-cell; white-space: nowrap; line-height: 1.5; max-width: 200px; text-align: center;"><span class="edgeLabel"></span></div></foreignObject></g></g><g class="edgeLabel"><g class="label" data-id="L_P_A_0" transform="translate(0, 0)"><foreignObject width="0" height="0"><div xmlns="http://www.w3.org/1999/xhtml" class="labelBkg" style="display: table-cell; white-space: nowrap; line-height: 1.5; max-width: 200px; text-align: center;"><span class="edgeLabel"></span></div></foreignObject></g></g><g class="edgeLabel"><g class="label" data-id="L_M_G_0" transform="translate(0, 0)"><foreignObject width="0" height="0"><div xmlns="http://www.w3.org/1999/xhtml" class="labelBkg" style="display: table-cell; white-space: nowrap; line-height: 1.5; max-width: 200px; text-align: center;"><span class="edgeLabel"></span></div></foreignObject></g></g><g class="edgeLabel"><g class="label" data-id="L_A_S_0" transform="translate(0, 0)"><foreignObject width="0" height="0"><div xmlns="http://www.w3.org/1999/xhtml" class="labelBkg" style="display: table-cell; white-space: nowrap; line-height: 1.5; max-width: 200px; text-align: center;"><span class="edgeLabel"></span></div></foreignObject></g></g><g class="edgeLabel" transform="translate(635.0078125, 388)"><g class="label" data-id="L_R_D_0" transform="translate(-37.625, -12)"><foreignObject width="75.25" height="24"><div xmlns="http://www.w3.org/1999/xhtml" class="labelBkg" style="display: table-cell; white-space: nowrap; line-height: 1.5; max-width: 200px; text-align: center;"><span class="edgeLabel"><p>downloads</p></span></div></foreignObject></g></g><g class="edgeLabel"><g class="label" data-id="L_D_H_0" transform="translate(0, 0)"><foreignObject width="0" height="0"><div xmlns="http://www.w3.org/1999/xhtml" class="labelBkg" style="display: table-cell; white-space: nowrap; line-height: 1.5; max-width: 200px; text-align: center;"><span class="edgeLabel"></span></div></foreignObject></g></g></g><g class="nodes"><g class="node default user" id="my-svg-flowchart-U-0" data-look="classic" transform="translate(377.27734375, 27.5)"><g class="basic label-container outer-path"><path d="M-62.6171875 -19.5 C-13.449578229276455 -19.5, 35.71803104144709 -19.5, 62.6171875 -19.5 C62.6171875 -19.5, 62.6171875 -19.5, 62.6171875 -19.5 C63.03989549243781 -19.486444577433712, 63.462603484875615 -19.472889154867428, 63.8665567896239 -19.45993515863156 C64.19306428080807 -19.42843737363973, 64.51957177199226 -19.396939588647903, 65.11079215284786 -19.3399052695533 C65.50975581108491 -19.27540391929891, 65.90871946932197 -19.210902569044524, 66.34478075967675 -19.140403561325776 C66.76677185696362 -19.04408684711931, 67.18876295425046 -18.947770132912847, 67.56345188623538 -18.862249829261074 C67.8522128148097 -18.776547101397263, 68.14097374338402 -18.690844373533448, 68.7617977514606 -18.50658706670804 C69.15535682173059 -18.36175369082852, 69.54891589200057 -18.216920314949004, 69.9348940951478 -18.074876768247425 C70.32123070618407 -17.903857010810054, 70.70756731722032 -17.73283725337268, 71.07792041279238 -17.568892924097174 C71.34247253157453 -17.430876253182245, 71.60702465035669 -17.29285958226731, 72.18617976407678 -16.990714730406097 C72.5445322120683 -16.7734793705209, 72.90288466005983 -16.556244010635705, 73.2551180736057 -16.342718045390892 C73.52871300752236 -16.151870063224436, 73.80230794143901 -15.96102208105798, 74.28034284457871 -15.627565626425154 C74.66633006804028 -15.31975108726594, 75.05231729150186 -15.011936548106727, 75.25764120850187 -14.848196188198123 C75.6015227927647 -14.535892031978758, 75.94540437702753 -14.22358787575939, 76.18299723676799 -14.007812326905688 C76.50857431472885 -13.671627263535884, 76.8341513926897 -13.335442200166082, 77.05260844296865 -13.10986736009568 C77.37623012811932 -12.729722914122153, 77.69985181326999 -12.349578468148625, 77.86290140812658 -12.158051136245305 C78.06500091893601 -11.887256203404858, 78.26710042974545 -11.616461270564411, 78.61054646464063 -11.156274872382312 C78.7580601260012 -10.929654275568067, 78.90557378736177 -10.703033678753824, 79.29247137860425 -10.108655082055241 C79.46752126137149 -9.79783628947927, 79.64257114413873 -9.487017496903299, 79.9058739742735 -9.019496659696287 C80.07734831030417 -8.663426531965557, 80.24882264633486 -8.307356404234826, 80.44823364880834 -7.893275190886684 C80.62445367911302 -7.458008309051613, 80.80067370941771 -7.022741427216543, 80.91732172997033 -6.734618561215508 C81.04948880495665 -6.336552389320384, 81.18165587994297 -5.93848621742526, 81.31121063421489 -5.548287939305138 C81.41518798796275 -5.151777225394353, 81.51916534171062 -4.755266511483568, 81.62828178754556 -4.339158212148133 C81.70583055631613 -3.9409616744493463, 81.7833793250867 -3.5427651367505595, 81.86723227658177 -3.1121979531509023 C81.9283928285055 -2.637848789947532, 81.98955338042923 -2.1634996267441613, 82.02708020250937 -1.872449005199798 C82.05630630752418 -1.4172288287067358, 82.085532412539 -0.9620086522136736, 82.10716871591342 -0.6250057626472757 C82.10716871591342 -0.36017384546211184, 82.10716871591342 -0.09534192827694798, 82.10716871591342 0.625005762647271 C82.0872035188537 0.9359798224694641, 82.06723832179397 1.246953882291657, 82.02708020250937 1.8724490051997846 C81.9886493927849 2.170510776401079, 81.9502185830604 2.468572547602373, 81.86723227658177 3.1121979531508885 C81.81074481836316 3.402249112474954, 81.75425736014455 3.6923002717990197, 81.62828178754556 4.339158212148129 C81.52128372444005 4.747188200023304, 81.41428566133456 5.1552181878984795, 81.31121063421489 5.548287939305125 C81.21088100037467 5.850464811075553, 81.11055136653445 6.15264168284598, 80.91732172997033 6.734618561215495 C80.76513835377078 7.110514442693804, 80.61295497757122 7.486410324172113, 80.44823364880834 7.893275190886679 C80.30834310226787 8.183760903956166, 80.1684525557274 8.474246617025655, 79.9058739742735 9.019496659696284 C79.76352913305875 9.272244339251246, 79.621184291844 9.52499201880621, 79.29247137860425 10.108655082055236 C79.13297886928656 10.353678406102686, 78.97348635996887 10.598701730150138, 78.61054646464065 11.156274872382301 C78.38207556995683 11.46240505713194, 78.15360467527299 11.768535241881578, 77.86290140812659 12.158051136245302 C77.58573811162026 12.483622915359987, 77.30857481511391 12.809194694474675, 77.05260844296866 13.10986736009567 C76.70960972088781 13.464041701362948, 76.36661099880696 13.818216042630228, 76.18299723676799 14.007812326905684 C75.84310299144923 14.316495287395256, 75.50320874613048 14.62517824788483, 75.2576412085019 14.848196188198111 C74.93956350350174 15.10185469353251, 74.62148579850161 15.35551319886691, 74.28034284457871 15.627565626425152 C73.96028343540706 15.85082521511478, 73.6402240262354 16.074084803804407, 73.2551180736057 16.34271804539089 C72.90992295860097 16.55197735269842, 72.56472784359626 16.76123666000595, 72.18617976407678 16.990714730406093 C71.84012955477701 17.171248902942047, 71.49407934547725 17.351783075477996, 71.07792041279238 17.56889292409717 C70.69474617444021 17.738512792955746, 70.31157193608804 17.908132661814324, 69.9348940951478 18.07487676824742 C69.4666427306655 18.24719759884507, 68.99839136618321 18.419518429442718, 68.76179775146062 18.506587066708033 C68.34646312480815 18.62985620376254, 67.9311284981557 18.75312534081705, 67.56345188623541 18.86224982926107 C67.27499449367454 18.928088346752688, 66.98653710111367 18.993926864244305, 66.34478075967677 19.140403561325773 C65.9686984677939 19.201205629715663, 65.59261617591105 19.26200769810555, 65.11079215284788 19.3399052695533 C64.71214704357483 19.37836208380398, 64.31350193430178 19.416818898054665, 63.8665567896239 19.45993515863156 C63.39331236759337 19.47511118613169, 62.920067945562835 19.490287213631824, 62.61718750000001 19.5 C62.61718750000001 19.5, 62.61718750000001 19.5, 62.6171875 19.5 C13.525880684143452 19.5, -35.565426131713096 19.5, -62.61718749999999 19.5 C-63.08313416041534 19.485057997510637, -63.549080820830696 19.47011599502127, -63.86655678962389 19.45993515863156 C-64.33166453839269 19.41506677348174, -64.79677228716147 19.37019838833192, -65.11079215284786 19.3399052695533 C-65.46532639022622 19.282586923508042, -65.81986062760457 19.22526857746278, -66.34478075967675 19.140403561325773 C-66.7209595437005 19.05454320866833, -67.09713832772425 18.96868285601089, -67.56345188623538 18.862249829261074 C-67.9465935132446 18.748535405516183, -68.32973514025379 18.634820981771295, -68.76179775146059 18.506587066708043 C-69.02331272628805 18.410347138553607, -69.28482770111553 18.314107210399172, -69.9348940951478 18.074876768247425 C-70.31402510703673 17.90704671580607, -70.69315611892567 17.73921666336472, -71.07792041279238 17.568892924097174 C-71.50352137421716 17.346857175132293, -71.92912233564194 17.124821426167415, -72.18617976407678 16.990714730406097 C-72.47687395089041 16.814494206051013, -72.76756813770405 16.638273681695928, -73.25511807360569 16.3427180453909 C-73.53466606537913 16.147717467767276, -73.81421405715255 15.95271689014365, -74.28034284457871 15.627565626425156 C-74.64315469287207 15.338232832239962, -75.00596654116542 15.04890003805477, -75.25764120850187 14.848196188198125 C-75.53187258789114 14.599146505201482, -75.80610396728042 14.350096822204836, -76.18299723676797 14.007812326905697 C-76.46295969360199 13.718728104879402, -76.742922150436 13.429643882853107, -77.05260844296865 13.109867360095677 C-77.37464201791636 12.731588398732573, -77.69667559286408 12.35330943736947, -77.86290140812658 12.158051136245307 C-78.03196031750274 11.931527599264744, -78.20101922687888 11.70500406228418, -78.61054646464063 11.156274872382316 C-78.84206529540289 10.800599776820611, -79.07358412616513 10.444924681258906, -79.29247137860425 10.108655082055249 C-79.43843709307656 9.849478175378309, -79.58440280754887 9.590301268701367, -79.9058739742735 9.019496659696289 C-80.09944453034147 8.61754325827474, -80.29301508640944 8.215589856853189, -80.44823364880834 7.893275190886686 C-80.56974249598142 7.593145989155444, -80.69125134315449 7.2930167874242, -80.91732172997033 6.73461856121551 C-81.05596697512009 6.317041172944333, -81.19461222026986 5.899463784673157, -81.31121063421489 5.5482879393051325 C-81.40748040975282 5.181169561594336, -81.50375018529076 4.814051183883539, -81.62828178754556 4.339158212148136 C-81.69698388833078 3.9863874448101986, -81.765685989116 3.6336166774722614, -81.86723227658177 3.112197953150904 C-81.92652080413691 2.652367841277291, -81.98580933169205 2.1925377294036776, -82.02708020250937 1.872449005199809 C-82.05182087151181 1.4870931151782698, -82.07656154051425 1.1017372251567303, -82.10716871591342 0.6250057626472781 C-82.10716871591342 0.2698143403364264, -82.10716871591342 -0.0853770819744254, -82.10716871591342 -0.6250057626472687 C-82.07594242649635 -1.1113804257250557, -82.0447161370793 -1.5977550888028424, -82.02708020250937 -1.8724490051997822 C-81.99455443570297 -2.124712429611089, -81.96202866889656 -2.3769758540223958, -81.86723227658177 -3.112197953150895 C-81.8169078355884 -3.3706033215775184, -81.76658339459502 -3.6290086900041416, -81.62828178754556 -4.339158212148126 C-81.53627427067912 -4.690022750269932, -81.44426675381267 -5.040887288391738, -81.31121063421489 -5.548287939305123 C-81.20011965655262 -5.882876264080271, -81.08902867889036 -6.217464588855419, -80.91732172997033 -6.734618561215485 C-80.79591388090218 -7.034498295674906, -80.67450603183401 -7.334378030134327, -80.44823364880834 -7.893275190886676 C-80.26495716975495 -8.2738527211295, -80.08168069070155 -8.654430251372323, -79.9058739742735 -9.019496659696282 C-79.73140203762462 -9.32928925041573, -79.55693010097573 -9.63908184113518, -79.29247137860425 -10.108655082055243 C-79.12129403348506 -10.371629451711554, -78.95011668836585 -10.634603821367865, -78.61054646464063 -11.156274872382308 C-78.40074657113884 -11.437387616511234, -78.19094667763703 -11.71850036064016, -77.86290140812659 -12.158051136245302 C-77.6371192800211 -12.423267671285052, -77.4113371519156 -12.688484206324803, -77.05260844296866 -13.10986736009567 C-76.78840089584716 -13.382683344341656, -76.52419334872565 -13.65549932858764, -76.18299723676799 -14.007812326905677 C-75.86647210110515 -14.295272080318504, -75.54994696544232 -14.582731833731332, -75.2576412085019 -14.848196188198107 C-75.017638402173 -15.039592039502496, -74.7776355958441 -15.230987890806885, -74.28034284457871 -15.627565626425149 C-73.91971357388005 -15.879124994275022, -73.55908430318138 -16.130684362124896, -73.25511807360571 -16.342718045390885 C-72.96845379417685 -16.516495616206953, -72.68178951474799 -16.690273187023024, -72.18617976407678 -16.99071473040609 C-71.95025420428546 -17.11379694383169, -71.71432864449415 -17.23687915725729, -71.0779204127924 -17.56889292409717 C-70.72324797492362 -17.725895891357617, -70.36857553705485 -17.882898858618063, -69.93489409514781 -18.07487676824742 C-69.60916712132574 -18.19474730560108, -69.28344014750368 -18.31461784295474, -68.76179775146062 -18.506587066708033 C-68.45303818195428 -18.598225286225457, -68.14427861244796 -18.689863505742885, -67.56345188623541 -18.862249829261067 C-67.26855639874648 -18.929557799907517, -66.97366091125755 -18.996865770553967, -66.34478075967677 -19.140403561325773 C-65.89806439943646 -19.21262519811231, -65.45134803919616 -19.28484683489885, -65.11079215284788 -19.3399052695533 C-64.62679887005027 -19.3865955194577, -64.14280558725267 -19.4332857693621, -63.8665567896239 -19.45993515863156 C-63.37151094265149 -19.475810315395677, -62.87646509567907 -19.491685472159798, -62.61718750000001 -19.5 C-62.61718750000001 -19.5, -62.6171875 -19.5, -62.6171875 -19.5" stroke="none" stroke-width="0" fill="#F6F6F7" style="fill:#F6F6F7 !important;stroke:#8F8F8F !important;stroke-width:1.5px !important"/><path d="M-62.6171875 -19.5 C-28.95021781196229 -19.5, 4.716751876075421 -19.5, 62.6171875 -19.5 M-62.6171875 -19.5 C-30.376739661865777 -19.5, 1.863708176268446 -19.5, 62.6171875 -19.5 M62.6171875 -19.5 C62.6171875 -19.5, 62.6171875 -19.5, 62.6171875 -19.5 M62.6171875 -19.5 C62.6171875 -19.5, 62.6171875 -19.5, 62.6171875 -19.5 M62.6171875 -19.5 C63.01821309026714 -19.48713988986909, 63.41923868053428 -19.474279779738183, 63.8665567896239 -19.45993515863156 M62.6171875 -19.5 C63.02029974586389 -19.487072974885532, 63.423411991727775 -19.474145949771064, 63.8665567896239 -19.45993515863156 M63.8665567896239 -19.45993515863156 C64.27976759237437 -19.42007320944892, 64.69297839512485 -19.380211260266275, 65.11079215284786 -19.3399052695533 M63.8665567896239 -19.45993515863156 C64.25106353661869 -19.42284225518599, 64.63557028361348 -19.385749351740426, 65.11079215284786 -19.3399052695533 M65.11079215284786 -19.3399052695533 C65.40578111015577 -19.292213742609288, 65.70077006746367 -19.244522215665278, 66.34478075967675 -19.140403561325776 M65.11079215284786 -19.3399052695533 C65.57201282933718 -19.265338687398273, 66.03323350582652 -19.190772105243244, 66.34478075967675 -19.140403561325776 M66.34478075967675 -19.140403561325776 C66.76932273185919 -19.04350462657041, 67.19386470404163 -18.946605691815044, 67.56345188623538 -18.862249829261074 M66.34478075967675 -19.140403561325776 C66.6558365306222 -19.06940711143608, 66.96689230156764 -18.998410661546384, 67.56345188623538 -18.862249829261074 M67.56345188623538 -18.862249829261074 C67.83440278983161 -18.78183302332403, 68.10535369342783 -18.70141621738699, 68.7617977514606 -18.50658706670804 M67.56345188623538 -18.862249829261074 C68.02143828390732 -18.726321870451702, 68.47942468157926 -18.590393911642334, 68.7617977514606 -18.50658706670804 M68.7617977514606 -18.50658706670804 C69.02093426777442 -18.411222433272854, 69.28007078408825 -18.315857799837673, 69.9348940951478 -18.074876768247425 M68.7617977514606 -18.50658706670804 C69.07476248669491 -18.391413151127516, 69.38772722192921 -18.276239235546992, 69.9348940951478 -18.074876768247425 M69.9348940951478 -18.074876768247425 C70.33864898653096 -17.896146454795407, 70.74240387791413 -17.717416141343392, 71.07792041279238 -17.568892924097174 M69.9348940951478 -18.074876768247425 C70.18432969385434 -17.964459027944176, 70.43376529256089 -17.85404128764093, 71.07792041279238 -17.568892924097174 M71.07792041279238 -17.568892924097174 C71.37666658644513 -17.413037236658596, 71.67541276009786 -17.25718154922002, 72.18617976407678 -16.990714730406097 M71.07792041279238 -17.568892924097174 C71.50920280055576 -17.343893178650575, 71.94048518831913 -17.11889343320398, 72.18617976407678 -16.990714730406097 M72.18617976407678 -16.990714730406097 C72.46401442498143 -16.822289726228, 72.74184908588607 -16.653864722049907, 73.2551180736057 -16.342718045390892 M72.18617976407678 -16.990714730406097 C72.54603421052835 -16.772568850227696, 72.90588865697991 -16.554422970049295, 73.2551180736057 -16.342718045390892 M73.2551180736057 -16.342718045390892 C73.60794323554252 -16.096602485978856, 73.96076839747936 -15.850486926566818, 74.28034284457871 -15.627565626425154 M73.2551180736057 -16.342718045390892 C73.61497372269056 -16.091698322489272, 73.97482937177543 -15.84067859958765, 74.28034284457871 -15.627565626425154 M74.28034284457871 -15.627565626425154 C74.58304475859127 -15.386168905236362, 74.88574667260384 -15.144772184047572, 75.25764120850187 -14.848196188198123 M74.28034284457871 -15.627565626425154 C74.49261343770044 -15.45828547716829, 74.70488403082217 -15.289005327911427, 75.25764120850187 -14.848196188198123 M75.25764120850187 -14.848196188198123 C75.46846498797689 -14.656731609770441, 75.67928876745192 -14.465267031342758, 76.18299723676799 -14.007812326905688 M75.25764120850187 -14.848196188198123 C75.51012327783211 -14.61889865314188, 75.76260534716236 -14.389601118085636, 76.18299723676799 -14.007812326905688 M76.18299723676799 -14.007812326905688 C76.50732941088114 -13.672912728967152, 76.83166158499428 -13.338013131028614, 77.05260844296865 -13.10986736009568 M76.18299723676799 -14.007812326905688 C76.50641524531608 -13.673856679967466, 76.82983325386417 -13.339901033029243, 77.05260844296865 -13.10986736009568 M77.05260844296865 -13.10986736009568 C77.31469733016125 -12.80200283991909, 77.57678621735386 -12.4941383197425, 77.86290140812658 -12.158051136245305 M77.05260844296865 -13.10986736009568 C77.25013955502571 -12.87783607603476, 77.44767066708279 -12.645804791973838, 77.86290140812658 -12.158051136245305 M77.86290140812658 -12.158051136245305 C78.12587016836318 -11.80569695447515, 78.3888389285998 -11.453342772704998, 78.61054646464063 -11.156274872382312 M77.86290140812658 -12.158051136245305 C78.05928843045612 -11.894910417549502, 78.25567545278567 -11.631769698853699, 78.61054646464063 -11.156274872382312 M78.61054646464063 -11.156274872382312 C78.87655528898514 -10.747613884818188, 79.14256411332967 -10.338952897254062, 79.29247137860425 -10.108655082055241 M78.61054646464063 -11.156274872382312 C78.84287772527492 -10.799351666369185, 79.07520898590921 -10.442428460356059, 79.29247137860425 -10.108655082055241 M79.29247137860425 -10.108655082055241 C79.45859899511687 -9.813678676691762, 79.6247266116295 -9.518702271328282, 79.9058739742735 -9.019496659696287 M79.29247137860425 -10.108655082055241 C79.46260834397913 -9.806559671796235, 79.63274530935401 -9.504464261537226, 79.9058739742735 -9.019496659696287 M79.9058739742735 -9.019496659696287 C80.02045390735243 -8.781568977040074, 80.13503384043135 -8.54364129438386, 80.44823364880834 -7.893275190886684 M79.9058739742735 -9.019496659696287 C80.05150666127723 -8.717087269092728, 80.19713934828096 -8.414677878489169, 80.44823364880834 -7.893275190886684 M80.44823364880834 -7.893275190886684 C80.61378438135411 -7.484361680792981, 80.77933511389986 -7.075448170699277, 80.91732172997033 -6.734618561215508 M80.44823364880834 -7.893275190886684 C80.63465532842157 -7.4328100380240265, 80.8210770080348 -6.97234488516137, 80.91732172997033 -6.734618561215508 M80.91732172997033 -6.734618561215508 C80.99888993277611 -6.488948130492719, 81.08045813558188 -6.24327769976993, 81.31121063421489 -5.548287939305138 M80.91732172997033 -6.734618561215508 C81.06461183870155 -6.291004221208951, 81.21190194743276 -5.847389881202394, 81.31121063421489 -5.548287939305138 M81.31121063421489 -5.548287939305138 C81.41368961174057 -5.157491183329904, 81.51616858926624 -4.766694427354672, 81.62828178754556 -4.339158212148133 M81.31121063421489 -5.548287939305138 C81.4297580213145 -5.096215373531714, 81.54830540841412 -4.644142807758289, 81.62828178754556 -4.339158212148133 M81.62828178754556 -4.339158212148133 C81.68667389721293 -4.039327070182979, 81.74506600688028 -3.739495928217824, 81.86723227658177 -3.1121979531509023 M81.62828178754556 -4.339158212148133 C81.71076541658637 -3.9156222099447446, 81.79324904562718 -3.4920862077413557, 81.86723227658177 -3.1121979531509023 M81.86723227658177 -3.1121979531509023 C81.92134171391962 -2.692535842275621, 81.97545115125745 -2.2728737314003404, 82.02708020250937 -1.872449005199798 M81.86723227658177 -3.1121979531509023 C81.92984796074325 -2.62656307165991, 81.99246364490473 -2.1409281901689177, 82.02708020250937 -1.872449005199798 M82.02708020250937 -1.872449005199798 C82.05833600843332 -1.385614598701895, 82.08959181435726 -0.8987801922039924, 82.10716871591342 -0.6250057626472757 M82.02708020250937 -1.872449005199798 C82.04837678356324 -1.540737564994935, 82.06967336461712 -1.2090261247900722, 82.10716871591342 -0.6250057626472757 M82.10716871591342 -0.6250057626472757 C82.10716871591342 -0.17229603997259885, 82.10716871591342 0.280413682702078, 82.10716871591342 0.625005762647271 M82.10716871591342 -0.6250057626472757 C82.10716871591342 -0.30963054577110344, 82.10716871591342 0.0057446711050688215, 82.10716871591342 0.625005762647271 M82.10716871591342 0.625005762647271 C82.08958388902693 0.8989036356210508, 82.07199906214045 1.1728015085948305, 82.02708020250937 1.8724490051997846 M82.10716871591342 0.625005762647271 C82.08821108639306 0.9202861447499605, 82.0692534568727 1.2155665268526499, 82.02708020250937 1.8724490051997846 M82.02708020250937 1.8724490051997846 C81.99134247862743 2.1496237344163074, 81.95560475474548 2.4267984636328297, 81.86723227658177 3.1121979531508885 M82.02708020250937 1.8724490051997846 C81.98418370696879 2.20514575374136, 81.9412872114282 2.5378425022829356, 81.86723227658177 3.1121979531508885 M81.86723227658177 3.1121979531508885 C81.77340088011694 3.594002342725153, 81.6795694836521 4.075806732299417, 81.62828178754556 4.339158212148129 M81.86723227658177 3.1121979531508885 C81.79019069013584 3.5077902168056974, 81.71314910368991 3.903382480460506, 81.62828178754556 4.339158212148129 M81.62828178754556 4.339158212148129 C81.51850043641811 4.75780208353564, 81.40871908529067 5.17644595492315, 81.31121063421489 5.548287939305125 M81.62828178754556 4.339158212148129 C81.50748373823532 4.799813528373807, 81.38668568892508 5.260468844599487, 81.31121063421489 5.548287939305125 M81.31121063421489 5.548287939305125 C81.2292314883727 5.795196064978692, 81.14725234253052 6.04210419065226, 80.91732172997033 6.734618561215495 M81.31121063421489 5.548287939305125 C81.22257578496637 5.815241983196235, 81.13394093571786 6.082196027087345, 80.91732172997033 6.734618561215495 M80.91732172997033 6.734618561215495 C80.75941060950431 7.124662081770379, 80.60149948903829 7.514705602325263, 80.44823364880834 7.893275190886679 M80.91732172997033 6.734618561215495 C80.77351006051673 7.0898361651753525, 80.62969839106314 7.44505376913521, 80.44823364880834 7.893275190886679 M80.44823364880834 7.893275190886679 C80.3266860066227 8.145671470588088, 80.20513836443705 8.398067750289496, 79.9058739742735 9.019496659696284 M80.44823364880834 7.893275190886679 C80.25792958995522 8.288445640949742, 80.06762553110211 8.683616091012807, 79.9058739742735 9.019496659696284 M79.9058739742735 9.019496659696284 C79.6989739718421 9.386868564910335, 79.49207396941068 9.754240470124389, 79.29247137860425 10.108655082055236 M79.9058739742735 9.019496659696284 C79.71174882142766 9.364185525877355, 79.51762366858183 9.708874392058425, 79.29247137860425 10.108655082055236 M79.29247137860425 10.108655082055236 C79.13187777314852 10.355369985456427, 78.9712841676928 10.60208488885762, 78.61054646464065 11.156274872382301 M79.29247137860425 10.108655082055236 C79.06356915049143 10.460310373291218, 78.83466692237863 10.8119656645272, 78.61054646464065 11.156274872382301 M78.61054646464065 11.156274872382301 C78.32190967147575 11.543021879870462, 78.03327287831085 11.929768887358623, 77.86290140812659 12.158051136245302 M78.61054646464065 11.156274872382301 C78.31873136660828 11.547280518843339, 78.02691626857592 11.938286165304378, 77.86290140812659 12.158051136245302 M77.86290140812659 12.158051136245302 C77.68068004896469 12.372098713405942, 77.49845868980279 12.586146290566582, 77.05260844296866 13.10986736009567 M77.86290140812659 12.158051136245302 C77.65213109261224 12.405633942019163, 77.44136077709788 12.653216747793026, 77.05260844296866 13.10986736009567 M77.05260844296866 13.10986736009567 C76.729646337364 13.443352249814481, 76.40668423175933 13.77683713953329, 76.18299723676799 14.007812326905684 M77.05260844296866 13.10986736009567 C76.7399042698381 13.43276009234305, 76.42720009670754 13.755652824590431, 76.18299723676799 14.007812326905684 M76.18299723676799 14.007812326905684 C75.87997465778645 14.283009415598631, 75.57695207880491 14.558206504291578, 75.2576412085019 14.848196188198111 M76.18299723676799 14.007812326905684 C75.98079621445127 14.191445945427844, 75.77859519213456 14.375079563950004, 75.2576412085019 14.848196188198111 M75.2576412085019 14.848196188198111 C74.95798197734723 15.087166450776918, 74.65832274619255 15.326136713355726, 74.28034284457871 15.627565626425152 M75.2576412085019 14.848196188198111 C74.89724218641403 15.135604817692425, 74.53684316432616 15.423013447186737, 74.28034284457871 15.627565626425152 M74.28034284457871 15.627565626425152 C73.96905877385485 15.844703918891879, 73.657774703131 16.061842211358606, 73.2551180736057 16.34271804539089 M74.28034284457871 15.627565626425152 C73.91414275137791 15.883010958895493, 73.5479426581771 16.138456291365834, 73.2551180736057 16.34271804539089 M73.2551180736057 16.34271804539089 C72.87061726994963 16.575804692144725, 72.48611646629358 16.80889133889856, 72.18617976407678 16.990714730406093 M73.2551180736057 16.34271804539089 C73.02109455004934 16.484584480645637, 72.78707102649297 16.62645091590038, 72.18617976407678 16.990714730406093 M72.18617976407678 16.990714730406093 C71.80031330589613 17.192021014479682, 71.41444684771547 17.393327298553267, 71.07792041279238 17.56889292409717 M72.18617976407678 16.990714730406093 C71.94657935296156 17.115714111413517, 71.70697894184633 17.24071349242094, 71.07792041279238 17.56889292409717 M71.07792041279238 17.56889292409717 C70.84067856076639 17.67391285445958, 70.6034367087404 17.77893278482199, 69.9348940951478 18.07487676824742 M71.07792041279238 17.56889292409717 C70.73361856069029 17.721305140671202, 70.38931670858821 17.873717357245233, 69.9348940951478 18.07487676824742 M69.9348940951478 18.07487676824742 C69.51883340229327 18.227990949240773, 69.10277270943874 18.381105130234126, 68.76179775146062 18.506587066708033 M69.9348940951478 18.07487676824742 C69.67759229378242 18.169566209621653, 69.42029049241707 18.26425565099589, 68.76179775146062 18.506587066708033 M68.76179775146062 18.506587066708033 C68.36158794166607 18.625367237510893, 67.96137813187153 18.744147408313758, 67.56345188623541 18.86224982926107 M68.76179775146062 18.506587066708033 C68.3326137172425 18.63396663523101, 67.90342968302436 18.761346203753984, 67.56345188623541 18.86224982926107 M67.56345188623541 18.86224982926107 C67.31568106417383 18.91880190254091, 67.06791024211225 18.97535397582075, 66.34478075967677 19.140403561325773 M67.56345188623541 18.86224982926107 C67.18585557758536 18.94843372266425, 66.80825926893532 19.034617616067436, 66.34478075967677 19.140403561325773 M66.34478075967677 19.140403561325773 C66.01529199791706 19.193672749103573, 65.68580323615737 19.24694193688137, 65.11079215284788 19.3399052695533 M66.34478075967677 19.140403561325773 C65.96867064684108 19.20121012759156, 65.5925605340054 19.262016693857348, 65.11079215284788 19.3399052695533 M65.11079215284788 19.3399052695533 C64.78270630576698 19.371555316640233, 64.45462045868608 19.403205363727167, 63.8665567896239 19.45993515863156 M65.11079215284788 19.3399052695533 C64.69181369811307 19.380323617186253, 64.27283524337825 19.420741964819204, 63.8665567896239 19.45993515863156 M63.8665567896239 19.45993515863156 C63.40578947796346 19.474711069487345, 62.94502216630302 19.48948698034313, 62.61718750000001 19.5 M63.8665567896239 19.45993515863156 C63.561484571902966 19.46971823086682, 63.256412354182025 19.479501303102083, 62.61718750000001 19.5 M62.61718750000001 19.5 C62.61718750000001 19.5, 62.6171875 19.5, 62.6171875 19.5 M62.61718750000001 19.5 C62.61718750000001 19.5, 62.6171875 19.5, 62.6171875 19.5 M62.6171875 19.5 C22.49684406019822 19.5, -17.623499379603558 19.5, -62.61718749999999 19.5 M62.6171875 19.5 C18.57787620006497 19.5, -25.46143509987006 19.5, -62.61718749999999 19.5 M-62.61718749999999 19.5 C-62.95189247148088 19.489266663028314, -63.28659744296178 19.478533326056628, -63.86655678962389 19.45993515863156 M-62.61718749999999 19.5 C-63.10338090464137 19.484408723831205, -63.58957430928274 19.468817447662406, -63.86655678962389 19.45993515863156 M-63.86655678962389 19.45993515863156 C-64.28334365274704 19.41972823120561, -64.70013051587017 19.379521303779658, -65.11079215284786 19.3399052695533 M-63.86655678962389 19.45993515863156 C-64.2288196119326 19.424988099848225, -64.59108243424129 19.390041041064894, -65.11079215284786 19.3399052695533 M-65.11079215284786 19.3399052695533 C-65.55625139286545 19.267886874215254, -66.00171063288303 19.195868478877212, -66.34478075967675 19.140403561325773 M-65.11079215284786 19.3399052695533 C-65.42228179570466 19.289546039734468, -65.73377143856146 19.23918680991564, -66.34478075967675 19.140403561325773 M-66.34478075967675 19.140403561325773 C-66.76289631981756 19.04497141318265, -67.18101187995836 18.94953926503953, -67.56345188623538 18.862249829261074 M-66.34478075967675 19.140403561325773 C-66.62930523566969 19.075462706376108, -66.91382971166261 19.010521851426446, -67.56345188623538 18.862249829261074 M-67.56345188623538 18.862249829261074 C-67.95226789547702 18.74685127865504, -68.34108390471866 18.631452728049002, -68.76179775146059 18.506587066708043 M-67.56345188623538 18.862249829261074 C-67.83372878718494 18.78203306377165, -68.1040056881345 18.701816298282225, -68.76179775146059 18.506587066708043 M-68.76179775146059 18.506587066708043 C-69.03185546544273 18.407203331576476, -69.30191317942486 18.307819596444908, -69.9348940951478 18.074876768247425 M-68.76179775146059 18.506587066708043 C-69.09029064098515 18.38569864680802, -69.41878353050971 18.264810226908, -69.9348940951478 18.074876768247425 M-69.9348940951478 18.074876768247425 C-70.23358400697227 17.942655604604163, -70.53227391879672 17.8104344409609, -71.07792041279238 17.568892924097174 M-69.9348940951478 18.074876768247425 C-70.18090747918924 17.96597394086002, -70.4269208632307 17.85707111347262, -71.07792041279238 17.568892924097174 M-71.07792041279238 17.568892924097174 C-71.30265736708417 17.451647798994042, -71.52739432137594 17.33440267389091, -72.18617976407678 16.990714730406097 M-71.07792041279238 17.568892924097174 C-71.35020749046413 17.42684093008402, -71.62249456813589 17.284788936070864, -72.18617976407678 16.990714730406097 M-72.18617976407678 16.990714730406097 C-72.558688872364 16.764897519855882, -72.9311979806512 16.539080309305664, -73.25511807360569 16.3427180453909 M-72.18617976407678 16.990714730406097 C-72.40362567921727 16.858897738793893, -72.62107159435777 16.727080747181688, -73.25511807360569 16.3427180453909 M-73.25511807360569 16.3427180453909 C-73.48481350504038 16.182492455777023, -73.71450893647508 16.02226686616315, -74.28034284457871 15.627565626425156 M-73.25511807360569 16.3427180453909 C-73.49251505814618 16.17712018572528, -73.72991204268668 16.01152232605966, -74.28034284457871 15.627565626425156 M-74.28034284457871 15.627565626425156 C-74.58923001677027 15.381236326435246, -74.89811718896183 15.134907026445338, -75.25764120850187 14.848196188198125 M-74.28034284457871 15.627565626425156 C-74.52482988384371 15.432593718684675, -74.7693169231087 15.237621810944196, -75.25764120850187 14.848196188198125 M-75.25764120850187 14.848196188198125 C-75.47710184921426 14.648887840913488, -75.69656248992666 14.449579493628853, -76.18299723676797 14.007812326905697 M-75.25764120850187 14.848196188198125 C-75.50382821405839 14.624615663502919, -75.75001521961491 14.401035138807712, -76.18299723676797 14.007812326905697 M-76.18299723676797 14.007812326905697 C-76.46079629082736 13.720961995862876, -76.73859534488675 13.434111664820053, -77.05260844296865 13.109867360095677 M-76.18299723676797 14.007812326905697 C-76.39020831705167 13.793849874166701, -76.59741939733537 13.579887421427706, -77.05260844296865 13.109867360095677 M-77.05260844296865 13.109867360095677 C-77.35678295242218 12.752566673271666, -77.6609574618757 12.395265986447654, -77.86290140812658 12.158051136245307 M-77.05260844296865 13.109867360095677 C-77.30927719710999 12.808369636615405, -77.56594595125134 12.506871913135132, -77.86290140812658 12.158051136245307 M-77.86290140812658 12.158051136245307 C-78.13754885852889 11.79004857360368, -78.41219630893119 11.422046010962053, -78.61054646464063 11.156274872382316 M-77.86290140812658 12.158051136245307 C-78.11673116798546 11.81794238240123, -78.37056092784437 11.477833628557152, -78.61054646464063 11.156274872382316 M-78.61054646464063 11.156274872382316 C-78.83033481746025 10.818620941014867, -79.05012317027987 10.48096700964742, -79.29247137860425 10.108655082055249 M-78.61054646464063 11.156274872382316 C-78.87985060941996 10.742551387712888, -79.14915475419929 10.328827903043463, -79.29247137860425 10.108655082055249 M-79.29247137860425 10.108655082055249 C-79.50192027474623 9.736757357954595, -79.71136917088822 9.364859633853941, -79.9058739742735 9.019496659696289 M-79.29247137860425 10.108655082055249 C-79.52213962767038 9.700855849406256, -79.75180787673654 9.293056616757262, -79.9058739742735 9.019496659696289 M-79.9058739742735 9.019496659696289 C-80.10423410459454 8.607597604857771, -80.30259423491559 8.195698550019253, -80.44823364880834 7.893275190886686 M-79.9058739742735 9.019496659696289 C-80.03241599727818 8.756729441361529, -80.15895802028285 8.493962223026768, -80.44823364880834 7.893275190886686 M-80.44823364880834 7.893275190886686 C-80.61686560723234 7.476750993302289, -80.78549756565634 7.0602267957178935, -80.91732172997033 6.73461856121551 M-80.44823364880834 7.893275190886686 C-80.59098451416843 7.540677793547037, -80.73373537952853 7.188080396207387, -80.91732172997033 6.73461856121551 M-80.91732172997033 6.73461856121551 C-81.02033103618619 6.424370943197442, -81.12334034240206 6.114123325179373, -81.31121063421489 5.5482879393051325 M-80.91732172997033 6.73461856121551 C-81.01133033155935 6.451479631465934, -81.10533893314839 6.1683407017163585, -81.31121063421489 5.5482879393051325 M-81.31121063421489 5.5482879393051325 C-81.38541992556691 5.265295748869575, -81.45962921691891 4.982303558434019, -81.62828178754556 4.339158212148136 M-81.31121063421489 5.5482879393051325 C-81.43340398368073 5.082311738859199, -81.55559733314658 4.616335538413265, -81.62828178754556 4.339158212148136 M-81.62828178754556 4.339158212148136 C-81.7033426087164 3.9537367595460386, -81.77840342988723 3.5683153069439415, -81.86723227658177 3.112197953150904 M-81.62828178754556 4.339158212148136 C-81.69256601552308 4.009072287959952, -81.75685024350061 3.678986363771768, -81.86723227658177 3.112197953150904 M-81.86723227658177 3.112197953150904 C-81.91862688875962 2.7135914901136458, -81.97002150093746 2.314985027076387, -82.02708020250937 1.872449005199809 M-81.86723227658177 3.112197953150904 C-81.92320581955671 2.6780782070635474, -81.97917936253165 2.2439584609761907, -82.02708020250937 1.872449005199809 M-82.02708020250937 1.872449005199809 C-82.05479045748352 1.4408394166622398, -82.08250071245766 1.0092298281246705, -82.10716871591342 0.6250057626472781 M-82.02708020250937 1.872449005199809 C-82.04762669960826 1.552420728050721, -82.06817319670714 1.2323924509016329, -82.10716871591342 0.6250057626472781 M-82.10716871591342 0.6250057626472781 C-82.10716871591342 0.12946033496684295, -82.10716871591342 -0.36608509271359224, -82.10716871591342 -0.6250057626472687 M-82.10716871591342 0.6250057626472781 C-82.10716871591342 0.24080135400919767, -82.10716871591342 -0.1434030546288828, -82.10716871591342 -0.6250057626472687 M-82.10716871591342 -0.6250057626472687 C-82.08409432619088 -0.9844080078878705, -82.06101993646836 -1.3438102531284724, -82.02708020250937 -1.8724490051997822 M-82.10716871591342 -0.6250057626472687 C-82.0784493653363 -1.0723328297284438, -82.04973001475918 -1.5196598968096189, -82.02708020250937 -1.8724490051997822 M-82.02708020250937 -1.8724490051997822 C-81.98356067258743 -2.2099778853711154, -81.94004114266549 -2.5475067655424484, -81.86723227658177 -3.112197953150895 M-82.02708020250937 -1.8724490051997822 C-81.96500738382521 -2.3538735292496336, -81.90293456514105 -2.835298053299485, -81.86723227658177 -3.112197953150895 M-81.86723227658177 -3.112197953150895 C-81.80868814550196 -3.412809692939283, -81.75014401442213 -3.713421432727671, -81.62828178754556 -4.339158212148126 M-81.86723227658177 -3.112197953150895 C-81.81593954822878 -3.3755752725214974, -81.76464681987581 -3.638952591892099, -81.62828178754556 -4.339158212148126 M-81.62828178754556 -4.339158212148126 C-81.52816981900753 -4.720928536985258, -81.4280578504695 -5.1026988618223905, -81.31121063421489 -5.548287939305123 M-81.62828178754556 -4.339158212148126 C-81.54984885765774 -4.6382569668572735, -81.4714159277699 -4.937355721566422, -81.31121063421489 -5.548287939305123 M-81.31121063421489 -5.548287939305123 C-81.1870229041428 -5.922321595654558, -81.0628351740707 -6.296355252003994, -80.91732172997033 -6.734618561215485 M-81.31121063421489 -5.548287939305123 C-81.20264579313216 -5.875267943187893, -81.09408095204944 -6.2022479470706635, -80.91732172997033 -6.734618561215485 M-80.91732172997033 -6.734618561215485 C-80.76042396916709 -7.122159063811335, -80.60352620836385 -7.5096995664071855, -80.44823364880834 -7.893275190886676 M-80.91732172997033 -6.734618561215485 C-80.7695764551365 -7.0995522465156125, -80.62183118030266 -7.46448593181574, -80.44823364880834 -7.893275190886676 M-80.44823364880834 -7.893275190886676 C-80.26449094249492 -8.274820852010604, -80.0807482361815 -8.65636651313453, -79.9058739742735 -9.019496659696282 M-80.44823364880834 -7.893275190886676 C-80.31250829877546 -8.175111784287225, -80.17678294874258 -8.456948377687775, -79.9058739742735 -9.019496659696282 M-79.9058739742735 -9.019496659696282 C-79.66829746535565 -9.441337808510132, -79.4307209564378 -9.863178957323981, -79.29247137860425 -10.108655082055243 M-79.9058739742735 -9.019496659696282 C-79.6873658095394 -9.40748003253266, -79.4688576448053 -9.795463405369041, -79.29247137860425 -10.108655082055243 M-79.29247137860425 -10.108655082055243 C-79.15415407564664 -10.321147602794529, -79.01583677268904 -10.533640123533814, -78.61054646464063 -11.156274872382308 M-79.29247137860425 -10.108655082055243 C-79.1044559983026 -10.397497195397337, -78.91644061800095 -10.686339308739429, -78.61054646464063 -11.156274872382308 M-78.61054646464063 -11.156274872382308 C-78.33818689024879 -11.521211889599712, -78.06582731585695 -11.886148906817116, -77.86290140812659 -12.158051136245302 M-78.61054646464063 -11.156274872382308 C-78.43217743174898 -11.395273126703932, -78.25380839885734 -11.634271381025556, -77.86290140812659 -12.158051136245302 M-77.86290140812659 -12.158051136245302 C-77.62816257914741 -12.433788721781994, -77.39342375016824 -12.709526307318685, -77.05260844296866 -13.10986736009567 M-77.86290140812659 -12.158051136245302 C-77.64893958277297 -12.409382871078417, -77.43497775741936 -12.660714605911533, -77.05260844296866 -13.10986736009567 M-77.05260844296866 -13.10986736009567 C-76.86679308261488 -13.30173697538576, -76.68097772226108 -13.493606590675851, -76.18299723676799 -14.007812326905677 M-77.05260844296866 -13.10986736009567 C-76.73319520894434 -13.439687748539995, -76.41378197492003 -13.769508136984323, -76.18299723676799 -14.007812326905677 M-76.18299723676799 -14.007812326905677 C-75.96903235674773 -14.202129569739574, -75.75506747672748 -14.39644681257347, -75.2576412085019 -14.848196188198107 M-76.18299723676799 -14.007812326905677 C-75.84802580069908 -14.312024522284938, -75.51305436463016 -14.616236717664199, -75.2576412085019 -14.848196188198107 M-75.2576412085019 -14.848196188198107 C-74.98580261105784 -15.06498023573086, -74.71396401361378 -15.281764283263614, -74.28034284457871 -15.627565626425149 M-75.2576412085019 -14.848196188198107 C-74.94883492479276 -15.094460981775805, -74.64002864108363 -15.340725775353501, -74.28034284457871 -15.627565626425149 M-74.28034284457871 -15.627565626425149 C-73.8784931974194 -15.907878544492627, -73.4766435502601 -16.188191462560106, -73.25511807360571 -16.342718045390885 M-74.28034284457871 -15.627565626425149 C-74.00446310921778 -15.820007387171676, -73.72858337385685 -16.012449147918204, -73.25511807360571 -16.342718045390885 M-73.25511807360571 -16.342718045390885 C-72.94080435682892 -16.533256867613403, -72.62649064005211 -16.723795689835924, -72.18617976407678 -16.99071473040609 M-73.25511807360571 -16.342718045390885 C-72.98777836422464 -16.504780948280207, -72.72043865484358 -16.666843851169528, -72.18617976407678 -16.99071473040609 M-72.18617976407678 -16.99071473040609 C-71.85656917271197 -17.162672364795455, -71.52695858134716 -17.33462999918482, -71.0779204127924 -17.56889292409717 M-72.18617976407678 -16.99071473040609 C-71.87862898115509 -17.151163776860663, -71.5710781982334 -17.311612823315233, -71.0779204127924 -17.56889292409717 M-71.0779204127924 -17.56889292409717 C-70.73418161454191 -17.721055893433498, -70.39044281629143 -17.873218862769825, -69.93489409514781 -18.07487676824742 M-71.0779204127924 -17.56889292409717 C-70.79304459860951 -17.69499899649515, -70.50816878442663 -17.821105068893136, -69.93489409514781 -18.07487676824742 M-69.93489409514781 -18.07487676824742 C-69.64693278905912 -18.18084919077319, -69.35897148297043 -18.28682161329896, -68.76179775146062 -18.506587066708033 M-69.93489409514781 -18.07487676824742 C-69.49275344094633 -18.23758861609697, -69.05061278674484 -18.40030046394652, -68.76179775146062 -18.506587066708033 M-68.76179775146062 -18.506587066708033 C-68.40538713070995 -18.612367868109306, -68.04897650995929 -18.718148669510576, -67.56345188623541 -18.862249829261067 M-68.76179775146062 -18.506587066708033 C-68.39637299907164 -18.615043215063412, -68.03094824668268 -18.72349936341879, -67.56345188623541 -18.862249829261067 M-67.56345188623541 -18.862249829261067 C-67.28243963112077 -18.926389042714643, -67.00142737600613 -18.990528256168222, -66.34478075967677 -19.140403561325773 M-67.56345188623541 -18.862249829261067 C-67.090919694971 -18.97010221835645, -66.6183875037066 -19.077954607451826, -66.34478075967677 -19.140403561325773 M-66.34478075967677 -19.140403561325773 C-66.09380559126076 -19.180979280213773, -65.84283042284477 -19.22155499910177, -65.11079215284788 -19.3399052695533 M-66.34478075967677 -19.140403561325773 C-65.95732208075138 -19.203044875747498, -65.569863401826 -19.265686190169223, -65.11079215284788 -19.3399052695533 M-65.11079215284788 -19.3399052695533 C-64.83620082288512 -19.366394764910417, -64.56160949292236 -19.392884260267532, -63.8665567896239 -19.45993515863156 M-65.11079215284788 -19.3399052695533 C-64.71901158603661 -19.377699869648513, -64.32723101922535 -19.415494469743727, -63.8665567896239 -19.45993515863156 M-63.8665567896239 -19.45993515863156 C-63.47992383892353 -19.472333724825134, -63.093290888223166 -19.48473229101871, -62.61718750000001 -19.5 M-63.8665567896239 -19.45993515863156 C-63.4531408521976 -19.473192603079514, -63.039724914771305 -19.48645004752747, -62.61718750000001 -19.5 M-62.61718750000001 -19.5 C-62.61718750000001 -19.5, -62.6171875 -19.5, -62.6171875 -19.5 M-62.61718750000001 -19.5 C-62.61718750000001 -19.5, -62.6171875 -19.5, -62.6171875 -19.5" stroke="#8F8F8F" stroke-width="1.5" fill="none" stroke-dasharray="0 0" style="fill:#F6F6F7 !important;stroke:#8F8F8F !important;stroke-width:1.5px !important"/></g><g class="label" style="color:#1F1F21 !important" transform="translate(-69.7421875, -12)"><rect/><foreignObject width="139.484375" height="24"><div style="color: rgb(31, 31, 33) !important; display: table-cell; white-space: nowrap; line-height: 1.5; max-width: 200px; text-align: center;" xmlns="http://www.w3.org/1999/xhtml"><span style="color:#1F1F21 !important" class="nodeLabel"><p>You type a message</p></span></div></foreignObject></g></g><g class="node default core" id="my-svg-flowchart-C-1" data-look="classic" transform="translate(377.27734375, 148)"><rect class="basic label-container" style="fill:#EDEEF2 !important;stroke:#5B5F6B !important;stroke-width:1.5px !important" x="-130" y="-51" width="260" height="102"/><g class="label" style="color:#1F1F21 !important" transform="translate(-100, -36)"><rect/><foreignObject width="200" height="72"><div style="color: rgb(31, 31, 33) !important; display: table; white-space: break-spaces; line-height: 1.5; max-width: 200px; text-align: center; width: 200px;" xmlns="http://www.w3.org/1999/xhtml"><span style="color:#1F1F21 !important" class="nodeLabel"><p>ChatController<br />streams the turn · 10 Hz UI flush</p></span></div></foreignObject></g></g><g class="node default core" id="my-svg-flowchart-R-3" data-look="classic" transform="translate(377.27734375, 300)"><rect class="basic label-container" style="fill:#EDEEF2 !important;stroke:#5B5F6B !important;stroke-width:1.5px !important" x="-130" y="-51" width="260" height="102"/><g class="label" style="color:#1F1F21 !important" transform="translate(-100, -36)"><rect/><foreignObject width="200" height="72"><div style="color: rgb(31, 31, 33) !important; display: table; white-space: break-spaces; line-height: 1.5; max-width: 200px; text-align: center; width: 200px;" xmlns="http://www.w3.org/1999/xhtml"><span style="color:#1F1F21 !important" class="nodeLabel"><p>EngineRuntime<br />one model in RAM · idle auto-unload</p></span></div></foreignObject></g></g><g class="node default protocol" id="my-svg-flowchart-P-5" data-look="classic" transform="translate(258.4453125, 476)"><polygon points="9.75,0 169.890625,0 179.640625,-19.5 169.890625,-39 9.75,-39 0,-19.5" class="label-container" transform="translate(-89.8203125,19.5)" style="fill:#F3E8FA !important;stroke:#BB3FD8 !important;stroke-width:1.5px !important"/><g class="label" style="color:#1F1F21 !important" transform="translate(-72.5703125, -12)"><rect/><foreignObject width="145.140625" height="24"><div style="color: rgb(31, 31, 33) !important; display: table-cell; white-space: nowrap; line-height: 1.5; max-width: 200px; text-align: center;" xmlns="http://www.w3.org/1999/xhtml"><span style="color:#1F1F21 !important" class="nodeLabel"><p>ChatEngine protocol</p></span></div></foreignObject></g></g><g class="node default mlx" id="my-svg-flowchart-M-7" data-look="classic" transform="translate(119.546875, 616.498104095459)"><rect class="basic label-container" style="fill:#E3F0EC !important;stroke:#3E9979 !important;stroke-width:1.5px !important" x="-111.546875" y="-39" width="223.09375" height="78"/><g class="label" style="color:#1F1F21 !important" transform="translate(-81.546875, -24)"><rect/><foreignObject width="163.09375" height="48"><div style="color: rgb(31, 31, 33) !important; display: table-cell; white-space: nowrap; line-height: 1.5; max-width: 200px; text-align: center;" xmlns="http://www.w3.org/1999/xhtml"><span style="color:#1F1F21 !important" class="nodeLabel"><p>MLXEngine<br />KV-cached ChatSession</p></span></div></foreignObject></g></g><g class="node default apple" id="my-svg-flowchart-A-9" data-look="classic" transform="translate(397.34375, 616.498104095459)"><rect class="basic label-container" style="fill:#E7F0FE !important;stroke:#2F7CF9 !important;stroke-width:1.5px !important" x="-116.25" y="-39" width="232.5" height="78"/><g class="label" style="color:#1F1F21 !important" transform="translate(-86.25, -24)"><rect/><foreignObject width="172.5" height="48"><div style="color: rgb(31, 31, 33) !important; display: table-cell; white-space: nowrap; line-height: 1.5; max-width: 200px; text-align: center;" xmlns="http://www.w3.org/1999/xhtml"><span style="color:#1F1F21 !important" class="nodeLabel"><p>AppleIntelligenceEngine<br />LanguageModelSession</p></span></div></foreignObject></g></g><g class="node default mlx" id="my-svg-flowchart-G-11" data-look="classic" transform="translate(119.546875, 744.996208190918)"><rect class="basic label-container" style="fill:#E3F0EC !important;stroke:#3E9979 !important;stroke-width:1.5px !important" x="-93.6328125" y="-39" width="187.265625" height="78"/><g class="label" style="color:#1F1F21 !important" transform="translate(-63.6328125, -24)"><rect/><foreignObject width="127.265625" height="48"><div style="color: rgb(31, 31, 33) !important; display: table-cell; white-space: nowrap; line-height: 1.5; max-width: 200px; text-align: center;" xmlns="http://www.w3.org/1999/xhtml"><span style="color:#1F1F21 !important" class="nodeLabel"><p>MLX / Metal<br />Apple Silicon GPU</p></span></div></foreignObject></g></g><g class="node default apple" id="my-svg-flowchart-S-13" data-look="classic" transform="translate(397.34375, 744.996208190918)"><rect class="basic label-container" style="fill:#E7F0FE !important;stroke:#2F7CF9 !important;stroke-width:1.5px !important" x="-101.1171875" y="-39" width="202.234375" height="78"/><g class="label" style="color:#1F1F21 !important" transform="translate(-71.1171875, -24)"><rect/><foreignObject width="142.234375" height="48"><div style="color: rgb(31, 31, 33) !important; display: table-cell; white-space: nowrap; line-height: 1.5; max-width: 200px; text-align: center;" xmlns="http://www.w3.org/1999/xhtml"><span style="color:#1F1F21 !important" class="nodeLabel"><p>Apple Intelligence<br />OS on-device model</p></span></div></foreignObject></g></g><g class="node default store" id="my-svg-flowchart-D-15" data-look="classic" transform="translate(635.0078125, 476)"><rect class="basic label-container" style="fill:#FDEEDF !important;stroke:#F3903E !important;stroke-width:1.5px !important" x="-91.15625" y="-51" width="182.3125" height="102"/><g class="label" style="color:#1F1F21 !important" transform="translate(-61.15625, -36)"><rect/><foreignObject width="122.3125" height="72"><div style="color: rgb(31, 31, 33) !important; display: table-cell; white-space: nowrap; line-height: 1.5; max-width: 200px; text-align: center;" xmlns="http://www.w3.org/1999/xhtml"><span style="color:#1F1F21 !important" class="nodeLabel"><p>ModelStore<br />catalog · imports<br />~/Models</p></span></div></foreignObject></g></g><g class="node default hub" id="my-svg-flowchart-H-17" data-look="classic" transform="translate(635.0078125, 616.498104095459)"><path d="M0,13.332069307508315 a71.4140625,13.332069307508315 0,0,0 142.828125,0 a71.4140625,13.332069307508315 0,0,0 -142.828125,0 l0,52.33206930750831 a71.4140625,13.332069307508315 0,0,0 142.828125,0 l0,-52.33206930750831" class="basic label-container outer-path" style="fill:#FFF7DB !important;stroke:#E3A008 !important;stroke-width:1.5px !important" transform="translate(-71.4140625, -39.49810396126247)"/><g class="label" style="color:#1F1F21 !important" transform="translate(-63.9140625, -2)"><rect/><foreignObject width="127.828125" height="24"><div style="color: rgb(31, 31, 33) !important; display: table-cell; white-space: nowrap; line-height: 1.5; max-width: 200px; text-align: center;" xmlns="http://www.w3.org/1999/xhtml"><span style="color:#1F1F21 !important" class="nodeLabel"><p>Hugging Face Hub</p></span></div></foreignObject></g></g></g></g></g><defs><filter id="my-svg-drop-shadow" height="130%" width="130%"><feDropShadow dx="4" dy="4" stdDeviation="0" flood-opacity="0.06" flood-color="#000000"/></filter></defs><defs><filter id="my-svg-drop-shadow-small" height="150%" width="150%"><feDropShadow dx="2" dy="2" stdDeviation="0" flood-opacity="0.06" flood-color="#000000"/></filter></defs></svg>